<svg width="201" height="95" viewBox="0 0 201 95" fill="none" xmlns="http://www.w3.org/2000/svg">
<path d="M40.1541 0.464016C44.1277 -0.292023 48.1852 0.155649 52.2156 0.0501555C56.1946 0.175936 60.2358 -0.369115 64.1594 0.532992C64.1323 1.91117 64.1174 3.28936 64.1255 4.67565C60.2142 5.52231 56.2013 5.10304 52.2426 5.17878C48.223 5.11656 44.1615 5.47227 40.1744 4.7311C40.1744 3.30378 40.1676 1.88097 40.1541 0.462663V0.464016ZM95.7074 0.359874C98.4943 -0.134437 101.35 -0.0885219 104.12 0.495123C104.086 1.89539 104.069 3.29296 104.071 4.68782C101.409 5.38401 98.6138 5.39145 95.9482 4.70946C95.6991 3.27389 95.6183 1.81417 95.7074 0.359874V0.359874ZM0.0272426 9.90977C-0.0341221 9.46757 0.0085171 9.01716 0.15177 8.59434C0.295024 8.17151 0.534941 7.78794 0.852448 7.47411C1.16996 7.16028 1.5563 6.92485 1.98076 6.78653C2.40522 6.64821 2.8561 6.61082 3.29755 6.67733C63.4155 6.65569 123.536 6.65073 183.658 6.66245C186.611 6.73954 189.921 6.15933 192.49 8.04198C195.966 10.5387 197.28 14.9478 198.265 18.9484C200.214 28.0804 200.194 37.5059 200.014 46.8096C185.858 46.7889 171.702 46.7889 157.546 46.8096C155.777 51.9301 154.029 57.0668 152.252 62.1887C146.854 62.0075 141.396 62.5119 136.04 61.9655C135.875 50.4694 136.04 38.9733 135.971 27.4772C136.043 27.1113 136.032 26.7338 135.939 26.3727C135.846 26.0116 135.672 25.6761 135.431 25.3912C135.191 25.1063 134.889 24.8793 134.548 24.7269C134.208 24.5746 133.838 24.5008 133.465 24.5112C127.69 24.4327 121.9 24.4476 116.125 24.5044C114.108 24.2177 113.157 26.4141 113.371 28.1358C113.371 39.4859 113.373 50.835 113.378 62.1833C75.5964 62.1652 37.8084 62.1603 0.0137178 62.1684C0.0475299 44.7457 0.00695537 27.323 0.0272426 9.90706V9.90977ZM163.859 19.3258C163.445 19.416 163.079 19.6576 162.833 20.0033C162.588 20.349 162.48 20.7739 162.531 21.1949C162.359 24.6789 162.517 28.1629 162.448 31.6482C162.531 32.9277 162.2 34.7901 163.728 35.3419C168.527 35.6841 173.359 35.3419 178.171 35.5042C179.603 35.3284 181.544 35.9586 182.446 34.4222C182.811 30.0199 182.605 25.5715 182.582 21.1557C182.706 19.0417 180.304 19.1053 178.872 19.1553C173.867 19.3014 168.848 18.9592 163.859 19.3231V19.3258ZM13.878 26.3533C12.3159 27.3392 12.796 29.418 12.6797 30.9855C12.7825 38.0022 12.604 45.0297 12.7555 52.0478C12.7184 52.3528 12.7487 52.6622 12.8442 52.9542C12.9396 53.2463 13.098 53.5139 13.308 53.7381C13.5181 53.9623 13.7747 54.1378 14.0599 54.2521C14.3451 54.3664 14.6519 54.4168 14.9587 54.3997C20.9096 54.4471 26.8605 54.4349 32.8115 54.3997C34.4845 54.6026 35.2 52.6983 35.0701 51.289C35.0769 44.0465 35.0634 36.8039 35.0701 29.5627C35.1323 28.1778 34.8091 26.0084 32.9711 26.2315C26.6144 26.2315 20.2293 26.0287 13.8821 26.3438L13.878 26.3533ZM55.1856 26.3438C53.802 27.1337 54.1388 28.9325 54.0563 30.266C54.1523 35.8788 53.9603 41.4916 54.132 47.1017C54.1484 47.4416 54.24 47.7736 54.4002 48.0738C54.5605 48.3739 54.7853 48.6348 55.0586 48.8376C55.3318 49.0403 55.6467 49.1799 55.9804 49.2462C56.3142 49.3125 56.6585 49.3039 56.9885 49.2211C69.875 49.1372 82.7628 49.263 95.6425 49.1859C95.9922 49.1911 96.3384 49.1155 96.6542 48.9652C96.9699 48.8148 97.2468 48.5936 97.4632 48.3189C97.6796 48.0441 97.8297 47.7231 97.9019 47.3809C97.9741 47.0387 97.9664 46.6845 97.8795 46.3457C97.8524 40.2717 97.9755 34.1842 97.8173 28.1115C97.893 26.4601 96.1713 25.9773 94.8702 26.1734C81.6456 26.3086 68.3953 25.9773 55.1843 26.3343L55.1856 26.3438ZM115.007 26.1139C121.451 25.8326 127.914 26.0219 134.365 26.0003C134.551 38.0496 134.386 50.1056 134.455 62.163C127.963 62.163 121.471 62.1549 114.967 62.163C115.001 50.1421 114.918 38.1212 115.009 26.1071L115.007 26.1139ZM119.256 31.2925C118.064 33.4119 118.926 36.2169 118.677 38.6095C118.931 41.0169 118 43.8382 119.421 45.9427C121.954 46.6 124.632 46.2226 127.227 46.2997C128.383 46.1956 130.243 46.5107 130.6 44.9689C130.979 41.2401 130.71 37.468 130.772 33.7243C130.745 32.6613 130.737 30.8841 129.348 30.7651C126.15 30.4706 122.93 30.4942 119.737 30.8354L119.256 31.2912V31.2925ZM74.6844 28.0858H77.2798C77.2866 34.4425 77.3001 40.8073 77.2798 47.168C76.632 47.168 75.3458 47.168 74.6979 47.168C74.6573 40.7992 74.6709 34.4425 74.6844 28.0858ZM147.214 81.4819C150.979 70.3915 154.797 59.3219 158.668 48.273C172.45 48.3433 186.225 48.2392 200.007 48.3284C199.855 50.5966 200.179 53.0378 199.126 55.1355C198.485 56.5705 196.647 56.1296 195.422 56.2837C185.262 56.1363 175.101 56.3541 164.946 56.2134C161.952 64.6164 159.096 73.0627 156.149 81.4792C153.173 81.4792 150.198 81.4941 147.214 81.4792V81.4819ZM182.872 57.3766C184.656 57.3766 186.446 57.3766 188.242 57.3914C189.371 59.4274 190.527 61.4448 191.712 63.4438C189.943 63.4438 188.179 63.4461 186.419 63.4506C185.234 61.4218 184.057 59.3931 182.872 57.3766V57.3766ZM0.0272426 63.6967H113.365C113.53 67.93 113.029 72.2174 113.62 76.4101C114.296 78.3428 116.663 78.0412 118.274 78.1047C123.326 77.9857 128.386 78.2089 133.432 78.0128C133.75 78.0267 134.066 77.9772 134.364 77.8671C134.662 77.757 134.935 77.5886 135.167 77.3717C135.399 77.1548 135.586 76.8938 135.716 76.604C135.845 76.3141 135.916 76.0013 135.924 75.6838C136.117 71.6872 135.903 67.6865 135.979 63.6832C141.232 63.6904 146.485 63.6904 151.737 63.6832C149.708 69.3515 147.909 75.0955 145.795 80.7245C145.492 81.8498 143.964 81.2979 143.132 81.5008C128.083 81.3953 113.029 81.5766 97.9796 81.4088C97.1105 78.5326 95.3659 75.9989 92.9889 74.1609C90.7981 72.5555 88.1352 71.7252 85.4202 71.8012C82.7053 71.8771 80.0929 72.8548 77.9953 74.5802C75.878 76.412 74.3132 78.7978 73.4766 81.4697H70.278C68.7091 76.1653 63.9443 71.8197 58.3545 71.7913C52.5388 71.4924 47.3818 75.8988 45.7575 81.4129C31.6037 81.5482 17.4432 81.4481 3.28944 81.4697C2.88323 81.5282 2.46917 81.4977 2.07592 81.3803C1.68268 81.2629 1.31963 81.0615 1.01193 80.7899C0.704233 80.5184 0.459226 80.1832 0.293873 79.8076C0.12852 79.432 0.0467737 79.0249 0.0542923 78.6146C-0.0633738 73.6469 0.0745796 68.6644 0.0272426 63.6967V63.6967ZM114.969 63.6967C121.448 63.6818 127.932 63.7102 134.417 63.6818C134.466 67.8867 134.437 72.0997 134.444 76.3127C128.049 76.8645 121.626 76.3965 115.217 76.5994C114.721 72.3161 115.052 68.0003 114.969 63.6967ZM55.2181 74.7587C56.5802 74.3903 58.0045 74.3122 59.3988 74.5295C60.793 74.7467 62.126 75.2545 63.3115 76.0198C64.497 76.7852 65.5084 77.791 66.2803 78.9723C67.0522 80.1535 67.5673 81.4837 67.7923 82.8767C68.0173 84.2697 67.9471 85.6944 67.5862 87.0586C67.2254 88.4227 66.582 89.6959 65.6977 90.7955C64.8134 91.8951 63.7079 92.7966 62.453 93.4417C61.198 94.0868 59.8215 94.461 58.4126 94.5401C55.9794 94.5798 53.6134 93.7417 51.7477 92.1792C49.882 90.6167 48.6416 88.4345 48.2536 86.0321C47.8657 83.6297 48.3561 81.1679 49.6351 79.0976C50.9141 77.0272 52.8961 75.4869 55.2181 74.7587V74.7587ZM56.4921 80.0983C55.7207 80.3906 55.0403 80.8818 54.5199 81.5219C53.9995 82.162 53.6576 82.9284 53.529 83.7433C53.4003 84.5581 53.4894 85.3926 53.7872 86.1619C54.085 86.9312 54.581 87.6081 55.2248 88.1239C57.6688 90.3691 61.806 88.6473 62.4742 85.5123C63.383 82.1689 59.6853 78.7255 56.4921 80.1023V80.0983ZM83.4066 74.6478C85.9289 74.0537 88.5834 74.4641 90.8086 75.792C93.0338 77.1199 94.6553 79.2613 95.3301 81.7632C97.141 87.5288 92.6521 94.1763 86.7107 94.5117C85.3571 94.6333 83.993 94.4779 82.7015 94.0551C81.4099 93.6323 80.218 92.9508 79.1984 92.0523C78.1788 91.1538 77.3529 90.0571 76.771 88.829C76.1891 87.6009 75.8634 86.2672 75.8137 84.9091C75.7085 82.5873 76.406 80.3002 77.7887 78.4322C79.1715 76.5642 81.1553 75.2292 83.4066 74.6518V74.6478ZM84.0828 80.1524C83.3519 80.4614 82.711 80.9501 82.2198 81.5733C81.7285 82.1964 81.4028 82.9337 81.273 83.7165C81.1431 84.4993 81.2134 85.3022 81.4772 86.0506C81.741 86.7989 82.1897 87.4684 82.7817 87.9968C83.3766 88.4991 84.0893 88.8422 84.8529 88.9938C85.6166 89.1455 86.4063 89.1007 87.148 88.8638C87.8896 88.6268 88.559 88.2054 89.0933 87.6391C89.6276 87.0728 90.0094 86.3801 90.2028 85.6259C91.2429 82.1771 87.3179 78.6146 84.0828 80.147V80.1524ZM149.935 83.3429C150.534 83.0833 151.154 82.873 151.787 82.714C151.849 86.1764 151.808 89.6482 151.829 93.1105C152.738 93.3986 153.646 93.7056 154.549 94.0411C152.393 94.6355 150.147 94.8276 147.921 94.6077C147.908 94.3143 147.888 93.7259 147.873 93.4324L149.862 93.2972C149.891 89.9809 149.677 86.6578 149.931 83.3483L149.935 83.3429Z" fill="#BC9C90"/>
</svg>
