<svg width="200" height="93" viewBox="0 0 200 93" fill="none" xmlns="http://www.w3.org/2000/svg">
<path d="M35.9074 0.592181C39.3249 -0.474128 42.9821 0.267653 46.5042 0.0623383C51.4331 0.263679 56.4269 -0.447636 61.2882 0.592181C61.2657 2.036 61.259 3.47453 61.2736 4.91835C56.3898 5.88134 51.4026 5.23758 46.4672 5.41508C42.9556 5.25215 39.3341 5.88929 35.91 4.91173C35.6217 3.48363 35.6217 2.01233 35.91 0.584234V0.584234L35.9074 0.592181ZM124.243 0.474291C128.463 -0.221128 132.748 0.133867 136.997 0.076909C141.21 0.15771 145.459 -0.271463 149.628 0.536548C149.613 2.01746 149.613 3.50764 149.628 4.99518C145.458 5.73563 141.224 5.35017 137.025 5.41773C132.756 5.58777 128.479 5.46385 124.227 5.04684C124.234 3.52089 124.241 2.00024 124.249 0.475616L124.243 0.474291ZM0.0515751 10.5572C-0.0152191 10.0977 0.0238961 9.62904 0.165933 9.18697C0.30797 8.74491 0.549169 8.34117 0.871105 8.00658C1.19304 7.67199 1.5872 7.41541 2.02346 7.25645C2.45972 7.09749 2.92654 7.04034 3.38826 7.08938C64.4836 7.08938 125.578 7.09689 186.673 7.1119C188.718 6.91056 189.587 9.13325 189.974 10.7864C193.099 23.9649 196.362 37.1076 199.319 50.3166C199.853 52.9749 200.064 55.6879 199.947 58.3967C180.883 58.3817 161.825 58.3817 142.773 58.3967C142.663 46.6183 142.809 34.8386 142.713 23.0681C142.743 22.6881 142.692 22.3061 142.562 21.9478C142.431 21.5895 142.226 21.2633 141.959 20.9914C141.692 20.7195 141.369 20.5081 141.013 20.3716C140.657 20.2352 140.276 20.1767 139.896 20.2003C134.559 19.9036 129.199 20.1778 123.855 20.0679C122.212 20.2096 119.701 19.8838 119.065 21.8972C118.808 24.0159 118.729 26.1525 118.83 28.2844C118.853 38.3144 118.85 48.3421 118.824 58.3676C79.2304 58.4206 39.6344 58.4303 0.0356797 58.3967C0.051575 42.4498 0.00786307 26.4989 0.0515751 10.5572ZM11.018 22.1502C9.39668 22.7436 9.71061 24.7146 9.61657 26.0988C9.66823 31.7946 9.60994 37.4785 9.64571 43.1598C9.59405 44.3903 9.8285 46.2858 11.3982 46.3229C17.2543 46.56 23.1236 46.3229 28.9863 46.4342C30.3295 46.4779 32.4396 46.4263 32.4687 44.5798C32.7098 38.423 32.4607 32.2516 32.5853 26.0882C32.5415 24.6656 32.7972 22.3091 30.8845 22.0654C27.3358 21.6799 23.7581 22.0045 20.1949 21.917C17.1344 21.7745 14.0676 21.8511 11.018 22.1462V22.1502ZM51.8742 22.08C50.3257 22.2416 50.2754 24.0801 50.2979 25.2868C50.3416 31.4887 50.2608 37.6891 50.3271 43.8896C50.2789 44.2479 50.3173 44.6126 50.4391 44.953C50.5609 45.2934 50.7625 45.5997 51.027 45.8461C51.2915 46.0926 51.6112 46.2721 51.9593 46.3696C52.3075 46.467 52.6739 46.4797 53.0279 46.4064C68.3828 46.3984 83.7363 46.4276 99.0898 46.3905C99.4356 46.4529 99.7913 46.4323 100.128 46.3305C100.464 46.2286 100.771 46.0484 101.024 45.8047C101.277 45.5609 101.469 45.2606 101.583 44.9284C101.698 44.5961 101.731 44.2415 101.682 43.8936C101.718 37.471 101.718 31.0454 101.682 24.6166C101.738 24.3155 101.731 24.0059 101.66 23.7079C101.589 23.4099 101.457 23.1301 101.271 22.8865C101.085 22.6429 100.85 22.4411 100.582 22.2939C100.313 22.1468 100.016 22.0576 99.7111 22.0323C95.1266 21.721 90.5196 22.0084 85.9193 21.9131C74.574 22.0455 63.2062 21.676 51.8768 22.0826L51.8742 22.08ZM160.035 22.1488C158.391 22.7198 158.71 24.6749 158.618 26.0684C158.691 34.4849 158.574 42.8988 158.669 51.3088C158.597 51.6517 158.605 52.0069 158.694 52.3459C158.783 52.685 158.95 52.9986 159.182 53.2618C159.413 53.525 159.703 53.7304 160.028 53.8619C160.353 53.9933 160.704 54.0471 161.054 54.0189C166.882 53.9977 172.735 54.1964 178.554 53.9156C180.189 53.7606 179.948 51.783 180.011 50.5895C179.909 41.6842 180.086 32.7722 179.932 23.8748C179.982 21.6084 177.26 21.9859 175.763 21.8879C170.529 22.0813 165.249 21.5779 160.044 22.1528L160.035 22.1488ZM184.283 22.231C182.859 22.9277 183.275 24.757 183.13 26.0538C183.181 34.2319 183.144 42.418 183.144 50.5974C183.21 51.783 183.071 53.7315 184.649 53.9235C189.292 54.256 193.965 53.9606 198.622 54.0123C196.337 43.283 193.672 32.6397 191.204 21.9568C188.895 21.7619 186.57 21.854 184.283 22.231V22.231ZM120.611 22.1118C127.386 21.4375 134.271 21.8972 141.09 21.9117C141.223 34.069 141.12 46.2329 141.149 58.3901C134.234 58.3901 127.315 58.3923 120.392 58.3967C120.392 48.6105 120.392 38.827 120.392 29.0461C120.275 26.7326 120.348 24.4133 120.611 22.1118V22.1118ZM125.512 27.0525C124.187 27.6393 124.402 29.3415 124.329 30.5336C124.358 33.9935 124.241 37.4626 124.381 40.9199C124.295 41.4593 124.426 42.0106 124.744 42.4544C125.063 42.8981 125.543 43.1987 126.081 43.2909C129.23 43.561 132.396 43.561 135.544 43.2909C135.808 43.2469 136.06 43.151 136.287 43.0088C136.513 42.8666 136.709 42.6809 136.863 42.4625C137.017 42.2441 137.126 41.9973 137.185 41.7363C137.243 41.4754 137.248 41.2055 137.201 40.9424C137.282 36.9778 137.303 33.0093 137.201 29.0448C137.217 28.7383 137.166 28.4321 137.053 28.1467C136.941 27.8613 136.768 27.6033 136.547 27.3901C136.327 27.1768 136.063 27.0132 135.774 26.9102C135.485 26.8072 135.177 26.7672 134.871 26.7929C131.754 26.5332 128.617 26.622 125.518 27.0578V27.0578L125.512 27.0525ZM74.6058 23.4615C75.2999 23.4615 76.7013 23.4695 77.3954 23.4695C77.3813 30.5959 77.3813 37.7174 77.3954 44.8341L74.5992 44.8645C74.6142 37.7293 74.6164 30.595 74.6058 23.4615V23.4615ZM0.162842 66.5709C-0.0257859 64.3796 -0.0505807 62.1773 0.0886641 59.9823C39.6679 60.0335 79.2494 60.0406 118.833 60.0035C118.966 64.9681 118.621 69.9539 118.987 74.9013C119.17 76.5094 120.987 77.0499 122.353 76.9611C128.23 76.9545 134.122 77.0432 139.999 76.9174C140.35 76.9386 140.703 76.8866 141.033 76.7646C141.363 76.6426 141.665 76.4533 141.918 76.2087C142.171 75.9641 142.371 75.6696 142.504 75.3437C142.638 75.0179 142.702 74.6679 142.693 74.3159C142.861 69.5473 142.664 64.7787 142.745 60.0181C161.807 59.981 180.863 60.0114 199.926 60.0035C199.926 63.9389 199.934 67.8717 199.926 71.8124C194.333 71.7912 188.741 71.8124 183.148 71.7978C183.171 75.0656 183.171 78.3255 183.177 81.584C182.564 81.6065 181.345 81.6357 180.739 81.6502C180.434 78.066 178.872 74.7048 176.329 72.1607C174.027 69.9869 171.016 68.7201 167.853 68.5947C164.689 68.4693 161.588 69.4938 159.121 71.4786C157.623 72.7546 156.392 74.3141 155.499 76.0675C154.605 77.8208 154.067 79.7333 153.915 81.6953C137.392 81.5323 120.878 81.6568 104.363 81.6211C104.091 77.9659 102.467 74.5431 99.8078 72.0203C97.4053 69.8172 94.266 68.592 91.0063 68.5851C87.7467 68.5782 84.6022 69.7903 82.1905 71.9832C79.3651 74.3993 78.0948 78.0658 77.5398 81.6661L74.9263 81.5999C74.7837 79.3664 74.118 77.1977 72.9829 75.2688C71.8479 73.34 70.2753 71.705 68.3921 70.4957C65.7709 68.9 62.6724 68.2758 59.6378 68.7321C56.6032 69.1885 53.8253 70.6964 51.7894 72.9926C49.708 75.4301 48.4352 78.454 48.1468 81.6462C44.8763 81.5045 41.5025 82.0436 38.3115 81.1164C26.251 77.0101 14.262 72.6866 2.16432 68.6929C1.65227 68.5908 1.18466 68.3319 0.826291 67.9522C0.467918 67.5724 0.236522 67.0906 0.164167 66.5735V66.5735L0.162842 66.5709ZM120.396 59.9995C127.318 59.9995 134.241 60.0022 141.167 60.0075C141.094 65.1112 141.292 70.2228 141.022 75.3279C134.209 75.3875 127.39 75.402 120.579 75.3133C120.229 70.2162 120.469 65.1045 120.396 59.9995ZM58.4959 71.7422C59.8349 71.3469 61.2389 71.2201 62.627 71.3692C64.0152 71.5182 65.3602 71.9401 66.5849 72.6105C67.8095 73.281 68.8895 74.1868 69.763 75.276C70.6364 76.3652 71.286 77.6163 71.6744 78.9573C73.7474 85.077 68.951 92.2842 62.585 92.618C59.8074 92.8836 57.0377 92.0378 54.8825 90.2656C52.7273 88.4935 51.3621 85.9395 51.0861 83.1629C50.8153 80.6965 51.4049 78.2123 52.7552 76.1307C54.1054 74.049 56.1334 72.4978 58.4959 71.7395V71.7422ZM59.8099 77.4062C59.0287 77.7405 58.3455 78.2686 57.8251 78.9403C57.3046 79.6121 56.964 80.4055 56.8354 81.2455C56.7068 82.0855 56.7945 82.9445 57.0901 83.7412C57.3857 84.5379 57.8796 85.2461 58.5251 85.7989C61.0736 88.2004 65.5269 86.5248 66.2859 83.1987C67.396 79.5613 63.2393 75.7981 59.8099 77.4049V77.4062ZM89.0281 71.4878C91.7005 71.0003 94.4582 71.5568 96.7323 73.0427C99.0064 74.5287 100.624 76.8306 101.25 79.4739C102.93 85.5936 98.0593 92.455 91.7806 92.6392C89.156 92.8344 86.5531 92.0412 84.4835 90.4152C82.4139 88.7892 81.0271 86.4481 80.5957 83.8517C80.1072 81.0977 80.7162 78.2619 82.2921 75.9512C83.8681 73.6405 86.2859 72.0384 89.0281 71.4878ZM89.0665 77.4671C88.0361 77.9391 87.1955 78.7455 86.6812 79.7554C86.1668 80.7654 86.009 81.9195 86.2332 83.0305C86.3711 83.692 86.645 84.3176 87.0376 84.8677C87.4302 85.4177 87.9328 85.8801 88.5137 86.2255C89.0945 86.5709 89.7408 86.7918 90.4115 86.8741C91.0822 86.9564 91.7627 86.8983 92.4098 86.7036C93.0444 86.4999 93.631 86.1696 94.1342 85.7326C94.6375 85.2957 95.0468 84.7612 95.3376 84.1616C95.6283 83.5619 95.7944 82.9094 95.8257 82.2437C95.8571 81.578 95.7531 80.9129 95.52 80.2885C95.298 79.6673 94.9513 79.0981 94.5011 78.6158C94.051 78.1336 93.507 77.7485 92.9026 77.4842C92.2981 77.2199 91.646 77.0821 90.9863 77.0792C90.3266 77.0762 89.6733 77.2082 89.0665 77.4671V77.4671ZM164.319 71.7183C165.811 71.289 167.379 71.1933 168.912 71.4379C170.445 71.6825 171.905 72.2615 173.189 73.1338C174.473 74.0061 175.55 75.1503 176.342 76.4852C177.135 77.8201 177.623 79.3131 177.774 80.8581C178.658 86.7923 173.628 92.7332 167.707 92.659C166.321 92.706 164.939 92.4784 163.641 91.9893C162.343 91.5002 161.155 90.7592 160.144 89.8091C159.134 88.8589 158.321 87.7183 157.753 86.4529C157.185 85.1875 156.873 83.8222 156.835 82.4357C156.723 80.0741 157.397 77.742 158.751 75.8039C160.105 73.8658 162.063 72.431 164.319 71.7236V71.7183ZM165.633 77.3837C162.501 78.5414 161.281 83.0967 163.895 85.424C164.461 86.0128 165.169 86.4473 165.95 86.6865C166.731 86.9257 167.56 86.9616 168.359 86.7909C169.158 86.6203 169.901 86.2486 170.516 85.7111C171.131 85.1736 171.599 84.4881 171.876 83.7193C173.562 80.0514 169.226 75.7557 165.633 77.3837V77.3837ZM184.74 81.6966C184.703 78.9149 184.711 76.1266 184.799 73.3516C188.383 73.4032 191.961 73.4257 195.545 73.3516C194.939 74.6821 194.663 76.1392 194.741 77.5991C194.818 79.059 195.247 80.4787 195.99 81.7376C192.246 81.5588 188.493 81.6052 184.74 81.7006V81.6966ZM198.451 73.3251L199.919 73.4138C199.919 76.2962 200.539 79.5481 198.349 81.8304C199.317 79.0835 199.353 76.0944 198.451 73.3251ZM196.896 80.4885C196.499 78.5692 195.589 76.0802 197.335 74.5622C197.735 76.5405 197.584 78.5908 196.896 80.4885V80.4885V80.4885Z" fill="#BC9C90"/>
</svg>
