<svg width="64" height="64" viewBox="0 0 64 64" fill="none" xmlns="http://www.w3.org/2000/svg">
<path d="M63.9825 60.125C61.3419 60.125 58.6856 60.1406 56.045 60.1094C55.6544 60.1094 55.4513 60.2031 55.295 60.5625C54.8263 61.5938 54.3419 62.5937 53.8263 63.5938C53.7325 63.7813 53.4356 63.9688 53.2325 63.9688C50.8731 64 48.5294 63.9687 46.17 64C45.7794 64 45.6231 63.8438 45.4825 63.5313C45.0138 62.5156 44.5294 61.5 43.9981 60.5C43.9044 60.3125 43.6075 60.125 43.4044 60.125C35.7169 60.1094 28.0294 60.1094 20.3419 60.0938C19.9825 60.0938 19.8263 60.2187 19.6856 60.5156C19.2169 61.5156 18.7169 62.5 18.2638 63.5C18.1075 63.8438 17.92 63.9844 17.5138 63.9844C15.2013 63.9687 12.8888 63.9687 10.5763 63.9844C10.17 63.9844 9.99814 63.8438 9.84189 63.5C9.40439 62.5312 8.90439 61.5938 8.46689 60.625C8.29502 60.2344 8.07627 60.0938 7.62314 60.0938C5.32627 60.125 3.04502 60.1094 0.748143 60.1094C0.513768 60.1094 0.295018 60.1094 0.0293926 60.1094C0.0293926 52.6094 0.0293926 45.1406 0.0293926 37.6406C6.23252 37.6406 12.4356 37.6406 18.7325 37.6406C18.7325 37.3906 18.7325 37.2031 18.7325 37C18.7325 31.4844 18.7325 25.9531 18.7481 20.4375C18.7481 20.0156 18.6388 19.7813 18.2169 19.5938C16.0919 18.6406 14.7481 16.2812 15.0294 14.0781C15.3575 11.4531 17.1388 9.48437 19.5919 9.04687C21.9513 8.625 24.3575 9.76562 25.4981 11.8594C27.0919 14.7812 25.9356 18.2344 22.9044 19.6406C22.6075 19.7812 22.4513 19.9062 22.4513 20.2812C22.4669 25.9688 22.4669 31.6562 22.4669 37.3438C22.4669 37.4063 22.4825 37.4687 22.4981 37.6094C36.3106 37.6094 50.1388 37.6094 63.9669 37.6094C63.9825 45.125 63.9825 52.625 63.9825 60.125ZM18.7169 45.1719C16.2325 45.1719 13.7638 45.1719 11.2794 45.1719C11.2794 46.4063 11.2794 47.625 11.2794 48.8281C13.7794 48.8281 16.2481 48.8281 18.7169 48.8281C18.7169 47.5937 18.7169 46.4063 18.7169 45.1719ZM29.9356 48.8438C29.9356 47.5781 29.9356 46.3594 29.9356 45.1719C27.42 45.1719 24.9669 45.1719 22.5138 45.1719C22.5138 46.4219 22.5138 47.625 22.5138 48.8438C24.9981 48.8438 27.4356 48.8438 29.9356 48.8438ZM33.7638 45.1562C33.7638 46.4219 33.7638 47.625 33.7638 48.8281C36.2638 48.8281 38.7325 48.8281 41.1856 48.8281C41.1856 47.5781 41.1856 46.375 41.1856 45.1562C38.7169 45.1562 36.2638 45.1562 33.7638 45.1562ZM52.4513 45.1719C49.9356 45.1719 47.4669 45.1719 45.0294 45.1719C45.0294 46.4375 45.0294 47.6406 45.0294 48.8438C47.5294 48.8438 49.9825 48.8438 52.4513 48.8438C52.4513 47.6094 52.4513 46.4063 52.4513 45.1719Z" fill="#A96145"/>
<path d="M6.10767 0C6.95142 0.875 7.79517 1.76563 8.65454 2.67188C5.42017 6.01563 3.73267 9.98438 3.74829 14.6094C3.74829 19.2031 5.45142 23.1563 8.60767 26.4219C7.70142 27.3281 6.84204 28.1875 5.96704 29.0625C3.37329 26.4375 1.49829 23.3125 0.638918 19.6406C-1.01733 12.5469 0.545168 6.25 5.34204 0.75C5.56079 0.5 5.76392 0.25 5.98267 0C6.01392 0 6.06079 0 6.10767 0Z" fill="#A96145"/>
<path d="M35.2326 0C36.2639 1.35938 37.4201 2.625 38.2951 4.07813C40.9201 8.39063 41.7326 13.0781 40.9045 18.0469C40.1858 22.3438 38.2483 26.0156 35.217 29.0938C34.342 28.2188 33.4983 27.375 32.6701 26.5469C39.1389 18.5938 39.1545 10.625 32.6389 2.57813C33.4045 1.76563 34.2483 0.890625 35.092 0C35.1389 0 35.1858 0 35.2326 0Z" fill="#A96145"/>
<path d="M11.2952 5.37499C12.1702 6.26562 13.0139 7.10937 13.9045 8.01562C12.2014 9.81249 11.2327 12.0156 11.2327 14.5781C11.2327 17.125 12.1702 19.3281 13.8889 21.125C13.0139 22 12.1545 22.875 11.2952 23.7344C6.59204 19.3906 5.85767 10.7656 11.2952 5.37499Z" fill="#A96145"/>
<path d="M27.295 8.01559C28.1856 7.10934 29.045 6.26559 29.8887 5.40621C34.6075 9.74996 35.3419 18.3906 29.9825 23.6875C29.1231 22.8281 28.2637 21.9687 27.3731 21.0625C28.9981 19.3437 29.9669 17.1406 29.9669 14.5781C29.9669 12.0312 29.0294 9.82809 27.295 8.01559Z" fill="#A96145"/>
</svg>
