<svg width="64" height="64" viewBox="0 0 64 64" fill="none" xmlns="http://www.w3.org/2000/svg">
<path d="M0 37.2426C0 29.8894 0 22.5191 0 15.166C0 12.9191 0.970212 11.6426 3.02979 10.7064C4.61277 9.99149 6.07659 9.0383 7.59149 8.15319C7.72766 8.06809 7.81277 7.7617 7.81277 7.55745C7.82979 5.90638 7.81277 4.2383 7.82979 2.58723C7.82979 0.919149 8.74894 0 10.383 0C12.5957 0 14.8426 0 17.0723 0C18.6894 0 19.5915 0.902127 19.5915 2.53617C19.6085 4.22128 19.6085 5.88936 19.5915 7.57447C19.5915 7.96596 19.7106 8.18723 20.0511 8.39149C21.617 9.2766 23.166 10.1957 24.7319 11.0979C26.2468 11.966 27.0468 13.2766 27.0638 15.0128C27.0979 17.6 27.0808 20.2043 27.0808 22.7915C27.0808 34.9106 27.0808 47.0468 27.0808 59.166C27.0808 62.2468 25.3277 64 22.2638 64C16.4085 64 10.5702 64 4.71489 64C1.77021 64 0 62.2298 0 59.2681C0 51.9319 0 44.5957 0 37.2426ZM23.9489 42.2979C23.9489 33.583 23.9489 24.9362 23.9489 16.2723C16.9362 16.2723 9.97447 16.2723 2.99574 16.2723C2.99574 22.2128 2.99574 28.1021 2.99574 34.0255C3.30213 34.0255 3.55745 34.0255 3.81277 34.0255C9.0383 34.0255 14.2808 34.0255 19.5064 34.0255C19.8468 34.0255 20.2043 34.0426 20.5106 34.1447C21.1404 34.3489 21.4468 34.8426 21.4638 35.5064C21.4808 36.1702 21.1234 36.7489 20.4936 36.9362C20.1872 37.0213 19.8638 37.0553 19.5574 37.0553C14.2809 37.0553 9.00425 37.0553 3.72766 37.0553C3.48936 37.0553 3.23404 37.0553 2.97872 37.0553C2.97872 41.6 2.97872 46.0426 2.97872 50.5532C3.26808 50.5532 3.5234 50.5532 3.77872 50.5532C8.97021 50.5532 14.1617 50.5532 19.3532 50.5532C19.6255 50.5532 19.9149 50.5532 20.1872 50.5872C20.9191 50.6723 21.4128 51.217 21.4638 51.9489C21.5149 52.9362 20.8681 53.5489 19.7617 53.5489C14.417 53.5489 9.08936 53.5489 3.74468 53.5489C3.48936 53.5489 3.25106 53.5489 2.94468 53.5489C2.94468 55.4894 2.94468 57.3617 2.94468 59.234C2.94468 60.5617 3.33617 60.9532 4.64681 60.9532C10.5362 60.9532 16.4255 60.9532 22.3319 60.9532C23.5915 60.9532 24.0511 60.4936 24.0511 59.217C24.0511 54.8085 24.0511 50.417 24.0511 46.0085C24.0511 45.7872 24.034 45.566 24.017 45.3106C23.6596 45.3106 23.3872 45.3106 23.1149 45.3106C17.7191 45.3106 12.3064 45.3106 6.91064 45.3106C6.62128 45.3106 6.31489 45.3106 6.02553 45.2596C5.05532 45.1064 4.51064 44.1702 4.85106 43.2511C5.10638 42.5702 5.6 42.2808 6.53617 42.2808C11.4894 42.2808 16.4426 42.2808 21.4128 42.2808C22.2298 42.2979 23.0468 42.2979 23.9489 42.2979ZM10.7404 6.82553C11.3532 6.82553 11.8808 6.80851 12.4085 6.82553C13.2426 6.85957 13.8043 7.4383 13.8383 8.2383C13.8723 9.07234 13.3957 9.68511 12.5617 9.78723C12.034 9.85532 11.5064 9.82128 10.9787 9.8383C10.7745 9.85532 10.5362 9.85532 10.366 9.95745C9.08936 10.6894 7.84681 11.4383 6.57021 12.1872C6.04255 12.4936 5.53191 12.8 4.93617 13.1404C10.6553 13.1404 16.2723 13.1404 22.0255 13.1404C20.3745 12.1191 18.8596 11.166 17.3447 10.2298C16.783 9.88936 16.4426 9.42979 16.4596 8.73191C16.4936 7.47234 16.4936 6.22979 16.5106 4.97021C16.5106 4.3234 16.5106 3.65957 16.5106 2.99574C14.5362 2.99574 12.6468 2.99574 10.7404 2.99574C10.7404 4.28936 10.7404 5.51489 10.7404 6.82553Z" fill="#A96145"/>
<path d="M47.8299 58.8936C46.264 58.8936 44.681 58.8936 43.115 58.8936C42.1788 58.8936 41.8044 58.6042 41.6001 57.6851C40.3916 52.3234 39.1661 46.9617 37.9576 41.583C37.7874 40.8 38.0937 40.0851 38.6895 39.8638C39.2852 39.6425 39.8469 39.9489 40.2725 40.6979C41.0895 42.1447 42.8767 42.1447 43.7278 40.7149C44.4257 39.5234 45.3959 39.5404 46.0937 40.7489C46.9278 42.2298 48.7491 42.2468 49.5491 40.7319C50.0427 39.8128 51.4214 39.5234 51.932 40.7489C52.2384 41.4808 52.8682 41.8383 53.6682 41.8383C54.4682 41.8383 55.0299 41.4298 55.4044 40.7319C55.8129 39.9659 56.3235 39.6936 56.9193 39.9319C57.532 40.1702 57.7874 40.783 57.6171 41.583C56.4257 46.9787 55.2342 52.3745 54.0427 57.7532C53.8554 58.6213 53.532 58.8766 52.6299 58.8766C51.0299 58.9106 49.4299 58.8936 47.8299 58.8936Z" fill="#A96145"/>
<path d="M47.8127 33.8383C42.5021 33.8042 38.2468 29.2936 38.6893 24.0851C38.8255 22.4681 39.5404 21.0213 40.3063 19.6255C42.0425 16.4425 44.2553 13.6 46.6212 10.8596C47.3021 10.0596 48.3404 10.0425 49.0212 10.8425C51.6765 13.9404 54.1276 17.1915 55.9999 20.8511C58.9616 26.6213 54.8936 32.8681 49.3446 33.7021C48.834 33.7702 48.3233 33.7872 47.8127 33.8383ZM47.8297 28.8C48.9361 28.8 49.9744 28.5277 50.8765 27.8468C51.5063 27.3532 51.6595 26.5191 51.285 25.9064C50.8765 25.2425 50.0595 24.9021 49.4297 25.2936C48.3744 25.9404 47.3872 25.9064 46.2978 25.3447C45.5659 24.9532 44.7829 25.2766 44.3914 25.9915C43.9999 26.7064 44.1702 27.4553 44.8851 27.9319C45.7702 28.5277 46.7574 28.8 47.8297 28.8Z" fill="#A96145"/>
<path d="M40.1361 60.9361C45.2765 60.9361 50.3829 60.9361 55.5233 60.9361C55.9999 58.5872 56.4765 56.2553 56.9531 53.9404C58.1105 48.2553 59.268 42.5702 60.4254 36.8851C60.6297 35.8808 61.4297 35.3021 62.2978 35.4893C63.1659 35.6766 63.7105 36.5957 63.5063 37.5659C61.7871 45.9064 60.085 54.2468 58.3659 62.6042C58.1786 63.5404 57.6169 64 56.6637 64C50.8425 64 45.0042 64 39.1829 64C38.1956 64 37.651 63.5404 37.4467 62.5532C36.068 55.8808 34.7063 49.1915 33.3276 42.5191C32.9701 40.817 32.6297 39.1149 32.2893 37.3957C32.085 36.3744 32.5276 35.6766 33.4467 35.4723C34.3148 35.2851 35.0467 35.8127 35.251 36.834C36.2382 41.6851 37.2254 46.5361 38.2127 51.3872C38.8254 54.5532 39.4722 57.7191 40.1361 60.9361Z" fill="#A96145"/>
<path d="M50.4168 5.36173C50.4339 6.72344 49.2083 7.94897 47.8126 7.96599C46.4509 7.98301 45.2764 6.82556 45.2424 5.4128C45.2083 4.00003 46.3658 2.80854 47.7956 2.79152C49.2254 2.7745 50.4168 3.93195 50.4168 5.36173Z" fill="#A96145"/>
</svg>
