<svg width="64" height="64" viewBox="0 0 64 64" fill="none" xmlns="http://www.w3.org/2000/svg">
<path d="M35.2378 63.8679C35.2378 62.5793 35.2047 61.3568 35.2543 60.1508C35.2873 59.3743 35.0725 58.7135 34.7421 58.0196C34.3126 57.1275 33.7674 56.5824 32.7597 56.2024C28.6957 54.6991 25.4577 52.0888 22.9961 48.5204C22.6492 48.0083 22.2858 47.7935 21.6415 47.81C19.5599 47.8596 17.4948 47.8266 15.4133 47.8266C11.6301 47.81 8.9538 45.1503 8.92076 41.3671C8.90424 39.8142 8.92076 38.2613 8.92076 36.6918C8.92076 36.4771 8.92076 36.2458 8.92076 35.9649C7.28524 35.9649 5.7158 35.9649 4.11333 35.9649C2.9569 26.697 1.80047 17.4951 0.644043 8.2437C6.40966 8.2437 12.1588 8.2437 17.9409 8.2437C17.9409 17.4621 17.9409 26.6805 17.9409 35.9484C16.3384 35.9484 14.7525 35.9484 13.1335 35.9484C13.1004 36.0806 13.0674 36.1797 13.0674 36.2788C13.0674 38.0135 13.0509 39.7646 13.0674 41.4992C13.0839 42.7383 13.8769 43.6139 15.1159 43.6469C16.834 43.6965 18.5521 43.6634 20.2537 43.6634C20.0059 41.8957 19.7581 40.1446 19.4938 38.3273C34.1309 38.3273 48.5862 38.3273 63.0911 38.3273C63.0746 41.2349 62.7607 44.0764 61.9843 46.8353C60.167 53.3774 56.4665 58.5483 50.8495 62.3645C50.2052 62.8106 49.5114 63.2071 48.8175 63.554C48.4706 63.7357 48.0411 63.8348 47.6446 63.8348C43.5475 63.8844 39.4505 63.8679 35.2378 63.8679Z" fill="#A96145"/>
<path d="M24.9128 33.3216C37.6996 33.3216 50.3707 33.3216 63.0749 33.3216C63.0749 34.5937 63.0749 35.7997 63.0749 37.0717C48.8343 37.0717 34.6103 37.0717 20.3367 37.0717C20.3367 24.7806 20.3367 12.5059 20.3367 0.181702C21.8235 0.181702 23.3268 0.181702 24.9128 0.181702C24.9128 11.1843 24.9128 22.2034 24.9128 33.3216Z" fill="#A96145"/>
<path d="M0.677156 7.03767C0.677156 5.89777 0.677156 4.7909 0.677156 3.63447C6.44277 3.63447 12.1754 3.63447 17.9575 3.63447C17.9575 4.75786 17.9575 5.88125 17.9575 7.03767C12.1754 7.03767 6.44277 7.03767 0.677156 7.03767Z" fill="#A96145"/>
</svg>
