<svg width="46" height="64" viewBox="0 0 46 64" fill="none" xmlns="http://www.w3.org/2000/svg">
<path d="M24.7193 0C25.9369 0.166797 27.1546 0.283555 28.3555 0.500391C34.8105 1.65129 40.3816 4.55356 45.0852 9.10711C45.1519 9.17383 45.2187 9.25723 45.3688 9.40735C44.9184 9.84102 44.4514 10.2747 44.0177 10.7084C43.6007 11.142 43.1837 11.5757 42.7668 12.0094C32.2419 1.0675 13.4272 1.00078 2.75215 11.9593C1.90149 11.092 1.05082 10.2413 0 9.17383C0.150117 9.10712 0.400313 9.0404 0.56711 8.89028C6.08809 3.68621 12.6099 0.733907 20.1824 0.100078C20.3659 0.0833985 20.5494 0.0333594 20.7329 0C22.0506 0 23.3849 0 24.7193 0Z" fill="#A96145"/>
<path d="M24.6026 45.202C24.6026 45.8859 24.5692 46.5864 24.6026 47.287C24.6526 48.2711 25.4699 48.9883 26.4707 49.0216C27.4215 49.055 28.4056 48.9883 29.3396 49.1384C32.1752 49.5888 34.1601 52.1908 33.9599 55.0764C33.7598 57.9286 31.3746 60.2304 28.5057 60.2638C24.8194 60.3138 21.1332 60.2804 17.4303 60.2804C15.9125 60.2804 15.1953 60.9977 15.1953 62.4822C15.1953 62.9826 15.1953 63.4663 15.1953 64C13.9276 64 12.7267 64 11.5257 64C10.7251 59.313 13.7608 56.4941 17.2802 56.5108C20.8997 56.5442 24.5359 56.5275 28.1554 56.5108C29.6232 56.5108 30.5739 55.2098 30.0402 53.9422C29.7066 53.1582 29.0728 52.7913 28.2221 52.7579C27.1046 52.7079 25.9537 52.7412 24.8695 52.491C22.551 51.9573 20.8997 49.7556 20.8163 47.3704C20.7996 46.7699 20.783 46.1527 20.8163 45.5523C20.833 45.1853 20.6996 45.0686 20.3493 44.9852C15.0285 43.7842 11.4423 39.3141 11.4256 33.8765C11.4256 32.6922 11.4256 31.508 11.4256 30.2737C18.9315 30.2737 26.404 30.2737 33.8765 30.2737C34.1434 34.2601 34.06 38.1298 31.1911 41.349C29.5231 43.2171 27.5049 44.4347 25.0696 44.9852C24.9529 45.0185 24.8194 45.0352 24.7027 45.0686C24.7027 45.1186 24.6693 45.152 24.6026 45.202Z" fill="#A96145"/>
<path d="M5.52094 14.6114C15.0284 4.90382 31.0909 5.37085 39.9645 14.6781C39.1139 15.5288 38.2632 16.3795 37.3625 17.2802C33.3093 13.3604 28.4222 11.2921 22.7344 11.2921C17.0633 11.2921 12.1761 13.3437 8.12297 17.2635C7.25563 16.3628 6.40496 15.4954 5.52094 14.6114Z" fill="#A96145"/>
<path d="M15.2452 19.4819C16.4795 19.4819 17.6972 19.4819 18.9315 19.4819C18.9315 21.817 18.9315 24.1188 18.9315 26.4707C17.6972 26.4707 16.4962 26.4707 15.2452 26.4707C15.2452 24.1522 15.2452 21.8337 15.2452 19.4819Z" fill="#A96145"/>
<path d="M30.2069 19.4986C30.2069 21.8337 30.2069 24.1522 30.2069 26.4874C28.9726 26.4874 27.7549 26.4874 26.504 26.4874C26.504 24.1522 26.504 21.8504 26.504 19.4986C27.7216 19.4986 28.9392 19.4986 30.2069 19.4986Z" fill="#A96145"/>
</svg>
